# xmcd
#
# Track frame offsets: 
#        150
#        7518
#        11377
#        27871
#        36896
#        58201
#        80055
#        92685
#        100426
#        120879
#        138747
#        146542
#        173694
#        197957
#        208170
#        226546
#
# Disc length: 3912 seconds
#
# Revision: 3
# Processed by: cddbd v1.5.2PL0 Copyright (c) Steve Scherf et al.
# Submitted via: ExactAudioCopy v0.99pb5
#
DISCID=ca0f4610
DTITLE=Prince Paul - Politics of the Business
DYEAR=2003
DGENRE=Hip-Hop
TTITLE0=A Day in the Life (feat. Dave Chappelle)
TTITLE1=Popmaster Intro (feat. Popmaster aka The Black Italiano)
TTITLE2=Make Room (feat. Mally G, Erick Sermon and Sy Scott)
TTITLE3=The Drive By
TTITLE4=So What (feat. Kokane, Masta Ace and Pretty Ugly)
TTITLE5=Drama Queen (feat. Dave of De La Soul and Truth Enola)
TTITLE6=Not Tryin' to Hear That (feat. Guru and Planet Asia)
TTITLE7=Politics of the Business (feat. Chuck D and Ice-T)
TTITLE8=Original Crhyme Pays (feat. Tash, The Beatnuts and Tony Touch)
TTITLE9=What I Need (feat. Kardinal Offishall and Sly Boogie)
TTITLE10=Princepaulonline.com
TTITLE11=Controversial Headlines aka Champion Sound (Pt 1) (feat. Horr
TTITLE11=or City)
TTITLE12=Beautifully Absurd (feat. W. Ellington Felton with K'Alyn on 
TTITLE12=Guitar)
TTITLE13=Controversial Headlines aka Champion Sound (Pt 2) (feat. Horr
TTITLE13=or City and Jean Grae)
TTITLE14=Chubb Rock Can You Please Pay Paul the $2200 You Owe Him (Peo
TTITLE14=ple, Places and Things) (feat. Chubb Rock, Wordsworth and MF Do
TTITLE14=om)
TTITLE15=A Life in the Day (feat. Dave Chappelle)
EXTD=YEAR: 2003
EXTT0=
EXTT1=
EXTT2=
EXTT3=
EXTT4=
EXTT5=
EXTT6=
EXTT7=
EXTT8=
EXTT9=
EXTT10=
EXTT11=
EXTT12=
EXTT13=
EXTT14=
EXTT15=
PLAYORDER=
